<svg width="251" height="40" viewBox="0 0 251 40" fill="none" xmlns="http://www.w3.org/2000/svg">
<g clip-path="url(#clip0_92_107)">
<path d="M0.974902 0.0626511C1.4499 0.287651 1.9249 0.525151 2.3874 0.750151C4.5874 1.81265 6.7749 2.88765 8.9749 3.95015C12.0249 5.42515 15.0624 6.91265 18.1124 8.38765C20.9624 9.77515 23.8124 11.1627 26.6624 12.5377C28.8374 13.6002 31.0124 14.7127 33.2624 15.6127C31.6624 15.2877 29.9749 15.7752 28.4999 16.4002C27.2249 16.9502 25.9999 17.6252 24.7374 18.2127C23.3624 18.8502 21.7749 18.8502 20.3874 18.2377L7.8624 12.6752C3.1374 10.5877 0.0874023 5.85015 0.0874023 0.625151C0.0874023 0.162651 0.562402 -0.137349 0.974902 0.0626511Z" fill="url(#paint0_linear_92_107)"/>
<path d="M39.2124 21.4625L5.4624 37.95L1.4749 39.9C0.837402 40.2125 0.0874023 39.7375 0.0874023 39.025V37.6625C0.0874023 33.85 2.1749 30.375 5.4624 28.6C5.6874 28.475 5.9124 28.3751 6.1374 28.2626L24.3374 20L30.0874 17.425C30.5124 17.2375 30.9499 17.0875 31.3999 16.975C32.2749 16.75 33.1749 16.675 34.0749 16.75C35.0624 16.8375 36.0249 17.1 36.9374 17.5375L39.2124 18.6375C40.3874 19.2125 40.3874 20.9 39.2124 21.4625Z" fill="url(#paint1_linear_92_107)"/>
<path d="M61.275 27.125L59.4249 22.9625L53.4999 9.78745C52.3124 7.12495 49.6749 5.39995 46.7624 5.39995H45.7875C45.2625 5.39995 44.9249 5.94995 45.1499 6.41245L58.3749 33.7374C58.775 34.5875 59.9874 34.575 60.3999 33.725L61.1875 32.0875C61.9375 30.525 61.9749 28.7125 61.275 27.125ZM73.2999 5.39995C69.5624 5.39995 66.1749 7.61245 64.6624 11.0375L60.6749 20.1C60.2374 21.1125 60.2374 22.25 60.6874 23.25C61.1124 24.1625 61.5999 25.05 61.9874 25.975C62.4499 27.05 62.7874 28.275 62.5624 29.425C63.1999 27.8 64.0124 26.225 64.7624 24.65C65.7624 22.5875 66.7499 20.525 67.7374 18.4625C68.7999 16.25 69.8624 14.05 70.9249 11.8375C71.6874 10.25 72.4499 8.66245 73.2124 7.07495C73.3874 6.73745 73.5499 6.38745 73.7124 6.04995C73.8499 5.74995 73.6374 5.39995 73.2999 5.39995ZM208.337 5.39995V28.55C208.337 31.8875 211.05 34.6 214.387 34.6V11.45C214.387 8.11245 211.675 5.39995 208.337 5.39995ZM193.5 28.75V11.45C193.5 8.11245 190.787 5.39995 187.45 5.39995V34.6H206.137V28.75H193.5ZM185.25 11.25V5.39995H166.575V34.6H172.612V23.65H182.975V17.8375H172.612V11.25H185.25ZM148.812 5.01245C140.337 5.01245 133.787 11.5625 133.787 20C133.787 28.4375 140.3 34.9874 148.812 34.9874C157.325 34.9874 163.925 28.475 163.925 20C163.925 11.525 157.287 5.01245 148.812 5.01245ZM148.812 29.025C143.787 29.025 139.987 25.175 139.987 20C139.987 14.825 143.712 10.975 148.812 10.975C153.912 10.975 157.687 14.8125 157.687 20C157.687 25.1875 153.837 29.025 148.812 29.025ZM132.325 11.2125V5.39995H113.25V34.6H132.325V28.7875H119.3V22.475H130.787V17.0125H119.3V11.2125H132.325ZM94.3999 5.39995H84.4749V34.6H94.3999C104.087 34.6 110.575 28.75 110.575 20C110.575 11.25 104.087 5.39995 94.3999 5.39995ZM95.2624 28.75H90.5124V11.25H95.2624C100.637 11.25 104.375 14.8125 104.375 20C104.375 25.1875 100.637 28.75 95.2624 28.75ZM74.5749 5.39995V34.6H80.6249V11.45C80.6249 8.11245 77.9124 5.39995 74.5749 5.39995ZM233.662 23.8L244.025 34.4875H242.112C238.712 34.4875 235.45 33.125 233.062 30.7125L230.05 27.6624L229.5 27.1749L227.462 29.2374C224.912 31.8125 222.712 33.525 218.887 34.1875C218 34.3375 217.2 33.65 217.2 32.75C217.2 32.375 217.35 32 217.625 31.7249L225.912 23.45L226.025 23.3625L225.262 22.575L220.887 18.15H220.9C218.462 15.6875 217.087 12.3625 217.087 8.89995C217.087 8.19995 217.937 7.84995 218.437 8.34995L229.587 19.6375L230.337 18.8625L231.625 17.5625L239.412 9.76245C242.125 7.03745 245.825 5.51245 249.675 5.51245H250.912L234.587 21.875L234.312 22.15L233.15 23.35L233.662 23.8Z" fill="url(#paint2_linear_92_107)"/>
</g>
<defs>
<linearGradient id="paint0_linear_92_107" x1="16.6749" y1="18.7001" x2="16.6749" y2="0.000150967" gradientUnits="userSpaceOnUse">
<stop stop-color="#3547FF"/>
<stop offset="1" stop-color="#8903FF"/>
</linearGradient>
<linearGradient id="paint1_linear_92_107" x1="-1.0876" y1="37.5" x2="37.6624" y2="16.875" gradientUnits="userSpaceOnUse">
<stop stop-color="#8903FF"/>
<stop offset="1" stop-color="#3547FF"/>
</linearGradient>
<linearGradient id="paint2_linear_92_107" x1="31.6874" y1="37.1874" x2="261.012" y2="2.24994" gradientUnits="userSpaceOnUse">
<stop stop-color="#8903FF"/>
<stop offset="1" stop-color="#3547FF"/>
</linearGradient>
<clipPath id="clip0_92_107">
<rect width="250.825" height="40" fill="white" transform="translate(0.0874023)"/>
</clipPath>
</defs>
</svg>
